# xmcd
#
# Track frame offsets:
#      150
#      24105
#      51783
#      75028
#      88111
#      114263
#      136129
#      160220
#      183407
#      207959
#      228881
#      248899
# 
# Disc length: 3648 seconds
#
# Revision: 1
# Processed by: cddbd v1.5.1PL0 Copyright (c) Steve Scherf et al.
#
# Submitted via: FreeRIP 1.21
#
DISCID=840e3e0c
DTITLE=NATIVE CHANTS - ANKA
DYEAR=1900
DGENRE=Native American
TTITLE0=OMA HEA RINDING WEST
TTITLE1=UKUNANAY DEEP PAIN
TTITLE2=JANANAO NISPA WITH PAIN YOU SAY
TTITLE3=CHEY CHEY CHEA CHANT OF MANKIND
TTITLE4=FLYING CONDOR
TTITLE5=MONTEZUMA
TTITLE6=LY O LAY ALE LOYA THE COUNTERCLOCKWISE CIRCLE DANCE
TTITLE7=AXTU LEM SUMIX SACRED MOUNTAIN
TTITLE8=WHITE BUFFALO
TTITLE9=RAINBOW
TTITLE10=HEYA NOHA WISHES OF HAPPINESS and PROSPERITY
TTITLE11=URPI WAQAY THE CRY OF THE PIGEON
EXTD=
EXTT0=
EXTT1=
EXTT2=
EXTT3=
EXTT4=
EXTT5=
EXTT6=
EXTT7=
EXTT8=
EXTT9=
EXTT10=
EXTT11=
PLAYORDER=
